<svg width="32" height="32" viewBox="0 0 32 32" fill="none" xmlns="http://www.w3.org/2000/svg">
<path d="M16.0005 24C15.2953 24 14.6328 23.7062 14.1366 23.1689L2.63716 10.7532C1.86055 9.91614 1.95951 9.22893 2.08735 8.89501C2.21518 8.56103 2.59319 8 3.69282 8H28.3068C29.4064 8 29.7845 8.56103 29.9123 8.89649C30.0401 9.23046 30.1405 9.91762 29.3625 10.7547L17.863 23.1704C17.3668 23.7062 16.7056 24 16.0005 24ZM3.44814 9.50352C3.48387 9.55846 3.53612 9.62673 3.60896 9.7039L15.1084 22.1196C15.5813 22.6301 16.4197 22.6301 16.8925 22.1196L28.392 9.7039C28.4649 9.62525 28.5157 9.55697 28.5529 9.50204C28.491 9.49314 28.41 9.4842 28.3068 9.4842H3.69287C3.59107 9.48425 3.50862 9.49314 3.44814 9.50352Z" fill="white"/>
</svg>
