<svg width="32" height="32" viewBox="0 0 32 32" fill="none" xmlns="http://www.w3.org/2000/svg">
<path d="M2 5V6V23H15V25H10V27H22V25H17V23H30V5H2ZM4 7H28V21H4V7ZM16 9C14.7713 9 13.6408 9.45271 12.7773 10.1914C12.148 10.7299 11.2555 11 10.3242 11H6V13H10.3242C11.6349 13 13.0035 12.6305 14.0781 11.7109C14.5987 11.2656 15.2587 11 16 11C16.7413 11 17.4013 11.2656 17.9219 11.7109C18.9965 12.6305 20.3651 13 21.6758 13H26V11H21.6758C20.7445 11 19.852 10.7299 19.2227 10.1914C18.3592 9.45271 17.2287 9 16 9ZM16 13C15.7348 13 15.4804 13.1054 15.2929 13.2929C15.1054 13.4804 15 13.7348 15 14C15 14.2652 15.1054 14.5196 15.2929 14.7071C15.4804 14.8946 15.7348 15 16 15C16.2652 15 16.5196 14.8946 16.7071 14.7071C16.8946 14.5196 17 14.2652 17 14C17 13.7348 16.8946 13.4804 16.7071 13.2929C16.5196 13.1054 16.2652 13 16 13ZM6 15V17H10.3242C11.2555 17 12.148 17.2701 12.7773 17.8086C13.6412 18.5476 14.7721 19 16 19C17.2279 19 18.3588 18.5476 19.2227 17.8086C19.852 17.2701 20.7445 17 21.6758 17H26V15H21.6758C20.3651 15 18.9965 15.3695 17.9219 16.2891C17.4017 16.7341 16.7401 17 16 17C15.2599 17 14.5983 16.7341 14.0781 16.2891C13.0035 15.3695 11.6349 15 10.3242 15H6Z" fill="white"/>
</svg>
