<svg width="32" height="32" viewBox="0 0 32 32" fill="none" xmlns="http://www.w3.org/2000/svg">
<path d="M29.4075 0.00297056C29.0249 0.00297056 28.658 0.123356 28.3875 0.337643C28.117 0.551931 27.965 0.842567 27.965 1.14562V13.7147L4.29358 0.220073C4.07826 0.0954362 3.82353 0.0205212 3.5577 0.00365027C3.29187 -0.0132207 3.02534 0.028613 2.78771 0.124504C2.55009 0.220395 2.35067 0.366589 2.21162 0.546847C2.07256 0.727104 1.99931 0.934368 2 1.14562V30.8544C1.99931 31.0656 2.07256 31.2729 2.21162 31.4532C2.35067 31.6334 2.55009 31.7796 2.78771 31.8755C3.02534 31.9714 3.29187 32.0132 3.5577 31.9964C3.82353 31.9795 4.07826 31.9046 4.29358 31.7799L27.965 18.2853V30.8544C27.965 31.1574 28.117 31.4481 28.3875 31.6624C28.658 31.8766 29.0249 31.997 29.4075 31.997C29.7901 31.997 30.157 31.8766 30.4275 31.6624C30.698 31.4481 30.85 31.1574 30.85 30.8544V1.14562C30.85 0.842567 30.698 0.551931 30.4275 0.337643C30.157 0.123356 29.7901 0.00297056 29.4075 0.00297056Z" fill="white"/>
</svg>
