<svg width="32" height="32" viewBox="0 0 32 32" fill="none" xmlns="http://www.w3.org/2000/svg">
<g clip-path="url(#clip0)">
<path d="M4.166 18H0.124H0V28L2.962 25.278C5.864 29.346 10.622 32 16 32C24.16 32 30.892 25.892 31.876 18H27.834C26.882 23.676 21.946 28 16 28C11.788 28 8.08 25.828 5.94 22.542L10.882 18H4.166Z" fill="white"/>
<path d="M16 0C7.84002 0 1.10802 6.108 0.124023 14H4.16602C5.11802 8.324 10.054 4 16 4C20.338 4 24.14 6.302 26.248 9.752L22 14H26H27.834H31.876H32V4L29.136 6.864C26.246 2.714 21.44 0 16 0Z" fill="white"/>
</g>
<defs>
<clipPath id="clip0">
<rect width="32" height="32" fill="white"/>
</clipPath>
</defs>
</svg>
