<svg width="30" height="32" viewBox="0 0 30 32" fill="none" xmlns="http://www.w3.org/2000/svg">
<path d="M25.5546 9.73549C25.5546 9.45944 25.8006 9.23547 26.104 9.23547C26.4075 9.23547 26.6537 9.46044 26.6537 9.73549V28.9168C26.6537 29.7636 26.2712 30.5345 25.6576 31.0938C25.0439 31.6522 24.1955 32.0001 23.2647 32.0001H6.22832C5.2975 32.0001 4.44798 31.6522 3.83542 31.0938C3.22175 30.5355 2.83936 29.7647 2.83936 28.9168V9.73549C2.83936 9.45944 3.08552 9.23547 3.38888 9.23547C3.6923 9.23547 3.93846 9.46044 3.93846 9.73549V28.9168C3.93846 29.4876 4.19724 30.0095 4.61169 30.3865C5.02614 30.7636 5.59976 31 6.22716 31H23.2636C23.891 31 24.4634 30.7635 24.878 30.3865C25.2936 30.0084 25.5523 29.4875 25.5523 28.9178V9.73549H25.5546Z" fill="white"/>
<path d="M10.6477 27.6252C10.6477 27.9013 10.4016 28.1252 10.0982 28.1252C9.79475 28.1252 9.54858 27.9013 9.54858 27.6252V9.86479C9.54858 9.58874 9.79475 9.36478 10.0982 9.36478C10.4016 9.36478 10.6477 9.58874 10.6477 9.86479V27.6252Z" fill="white"/>
<path d="M15.2961 27.6252C15.2961 27.9013 15.05 28.1252 14.7466 28.1252C14.4432 28.1252 14.197 27.9013 14.197 27.6252V9.86479C14.197 9.58874 14.4432 9.36478 14.7466 9.36478C15.05 9.36478 15.2961 9.58874 15.2961 9.86479V27.6252Z" fill="white"/>
<path d="M19.9457 27.6252C19.9457 27.9013 19.6997 28.1252 19.3963 28.1252C19.0928 28.1252 18.8467 27.9013 18.8467 27.6252V9.86479C18.8467 9.58874 19.0928 9.36478 19.3963 9.36478C19.6997 9.36478 19.9457 9.58874 19.9457 9.86479V27.6252Z" fill="white"/>
<path d="M10.3271 3.08334C10.3271 3.35939 10.081 3.58335 9.77755 3.58335C9.47419 3.58335 9.22803 3.35939 9.22803 3.08334C9.22803 2.23436 9.60927 1.46356 10.223 0.905231C10.8367 0.346861 11.6839 0 12.617 0H16.8761C17.8081 0 18.6553 0.347913 19.2689 0.90624C19.8826 1.46457 20.265 2.23747 20.265 3.08334C20.265 3.35939 20.0189 3.58335 19.7155 3.58335C19.4121 3.58335 19.166 3.35939 19.166 3.08334C19.166 2.51251 18.9072 1.99062 18.4927 1.61355C18.0782 1.23644 17.5047 0.999981 16.8773 0.999981H12.6182C11.9896 0.999981 11.4172 1.23539 11.0016 1.6125C10.5859 1.99062 10.3271 2.51146 10.3271 3.08334Z" fill="white"/>
<path d="M1.96925 4.52106H27.5238C28.0631 4.52106 28.5554 4.72209 28.9126 5.04711L28.9149 5.04922C29.2721 5.3742 29.4931 5.82212 29.4931 6.31275V7.60444C29.4931 7.88044 29.2469 8.1044 28.9435 8.1044H28.9286H0.549575C0.246162 8.1044 0 7.88044 0 7.60444V7.59194V6.31275C0 5.82318 0.220958 5.3742 0.5782 5.04922L0.580513 5.04711C0.937708 4.72213 1.43114 4.52106 1.96925 4.52106ZM27.5239 5.52108H1.96925C1.72997 5.52108 1.51128 5.60965 1.35558 5.75232L1.35326 5.75443C1.1964 5.89605 1.0991 6.09401 1.0991 6.31275V7.10442H28.3928V6.31275C28.3928 6.09506 28.2955 5.89609 28.1387 5.75443L28.1364 5.75232C27.9807 5.60965 27.7632 5.52108 27.5239 5.52108Z" fill="white"/>
</svg>
