<svg width="30" height="32" viewBox="0 0 30 32" fill="none" xmlns="http://www.w3.org/2000/svg">
<path d="M29.0015 7.7037H28.0184V2.96296C28.0184 2.8058 27.9666 2.65507 27.8745 2.54394C27.7823 2.4328 27.6572 2.37037 27.5269 2.37037H12.6421L12.2763 0.459496C12.2513 0.328875 12.1904 0.21232 12.1033 0.128864C12.0163 0.0454073 11.9084 -1.99598e-05 11.7972 6.57896e-09H0.491551C0.361184 6.57896e-09 0.236156 0.0624338 0.143972 0.173566C0.0517883 0.284699 0 0.435427 0 0.592593V31.4074C0 31.5646 0.0517883 31.7153 0.143972 31.8264C0.236156 31.9376 0.361184 32 0.491551 32H29.0015C29.1319 32 29.2569 31.9376 29.3491 31.8264C29.4413 31.7153 29.4931 31.5646 29.4931 31.4074V8.2963C29.4931 8.13913 29.4413 7.9884 29.3491 7.87727C29.2569 7.76614 29.1319 7.7037 29.0015 7.7037ZM27.0353 3.55556V7.7037H13.6662L12.9016 3.55556H27.0353ZM28.51 30.8148H0.983103V1.18519H11.4063L12.7928 8.42939C12.8027 8.46994 12.8163 8.50906 12.8334 8.54601C12.84 8.56888 12.8478 8.59126 12.8566 8.61304C12.8757 8.64482 12.8975 8.67419 12.9215 8.70068C12.9538 8.75683 13.0006 8.79851 13.0546 8.8192C13.1184 8.87134 13.195 8.8959 13.2719 8.88889H28.51V30.8148Z" fill="white"/>
<path d="M22.1199 18.9632H7.37339C7.24302 18.9632 7.11799 19.0256 7.02581 19.1368C6.93362 19.2479 6.88184 19.3986 6.88184 19.5558C6.88184 19.713 6.93362 19.8637 7.02581 19.9748C7.11799 20.0859 7.24302 20.1484 7.37339 20.1484H22.1199C22.2503 20.1484 22.3753 20.0859 22.4675 19.9748C22.5597 19.8637 22.6115 19.713 22.6115 19.5558C22.6115 19.3986 22.5597 19.2479 22.4675 19.1368C22.3753 19.0256 22.2503 18.9632 22.1199 18.9632Z" fill="white"/>
</svg>
