<svg width="32" height="32" viewBox="0 0 32 32" fill="none" xmlns="http://www.w3.org/2000/svg">
<path fill-rule="evenodd" clip-rule="evenodd" d="M19.8032 16.0001L31.2124 4.59089C32.2626 3.54066 32.2626 1.8379 31.2124 0.787822C30.1621 -0.262407 28.4595 -0.262407 27.4093 0.787822L16 12.1972L4.59062 0.787672C3.54039 -0.262557 1.83779 -0.262557 0.78756 0.787672C-0.26252 1.8379 -0.26252 3.54066 0.78756 4.59074L12.1969 15.9999L0.78756 27.4093C-0.26252 28.4595 -0.26252 30.1622 0.78756 31.2123C1.83779 32.2626 3.54039 32.2626 4.59062 31.2123L16 19.803L27.4093 31.2123C28.4594 32.2626 30.1621 32.2626 31.2124 31.2123C32.2626 30.1621 32.2626 28.4595 31.2124 27.4093L19.8032 16.0001Z" fill="white"/>
</svg>
